<svg xmlns="http://www.w3.org/2000/svg" xmlns:xlink="http://www.w3.org/1999/xlink" width="2000" zoomAndPan="magnify" viewBox="0 0 1500 1499.999933" height="2000" preserveAspectRatio="xMidYMid meet" version="1.0"><defs><clipPath id="c4d5075426"><path d="M 806 697 L 1203 697 L 1203 1141 L 806 1141 Z M 806 697 " clip-rule="nonzero"/></clipPath><clipPath id="0f844c76d6"><path d="M 855.0625 693.191406 L 1207.425781 1131.746094 L 1060.667969 1249.65625 L 708.308594 811.105469 Z M 855.0625 693.191406 " clip-rule="nonzero"/></clipPath><clipPath id="3c74a9ac5d"><path d="M 816.347656 945.574219 L 952.695312 1115.269531 C 961.046875 1125.667969 973.503906 1131.925781 986.832031 1132.421875 L 1192.816406 1140.070312 C 1196.570312 1140.210938 1200.058594 1138.148438 1201.742188 1134.792969 C 1203.429688 1131.4375 1203 1127.40625 1200.648438 1124.480469 L 860.761719 701.457031 C 858.410156 698.527344 854.566406 697.242188 850.929688 698.167969 C 847.289062 699.089844 844.523438 702.050781 843.851562 705.746094 L 806.953125 908.542969 C 804.566406 921.664062 807.996094 935.175781 816.347656 945.574219 Z M 816.347656 945.574219 " clip-rule="nonzero"/></clipPath><clipPath id="6d6ffbb238"><path d="M 0 0.199219 L 397 0.199219 L 397 443.238281 L 0 443.238281 Z M 0 0.199219 " clip-rule="nonzero"/></clipPath><clipPath id="18c5f3cce9"><path d="M 49.0625 -3.808594 L 401.425781 434.746094 L 254.667969 552.65625 L -97.691406 114.105469 Z M 49.0625 -3.808594 " clip-rule="nonzero"/></clipPath><clipPath id="3943e2ce75"><path d="M 10.347656 248.574219 L 146.695312 418.269531 C 155.046875 428.667969 167.503906 434.925781 180.832031 435.421875 L 386.816406 443.070312 C 390.570312 443.210938 394.058594 441.148438 395.742188 437.792969 C 397.429688 434.4375 397 430.40625 394.648438 427.480469 L 54.761719 4.457031 C 52.410156 1.527344 48.566406 0.242188 44.929688 1.167969 C 41.289062 2.089844 38.523438 5.050781 37.851562 8.746094 L 0.953125 211.542969 C -1.433594 224.664062 1.996094 238.175781 10.347656 248.574219 Z M 10.347656 248.574219 " clip-rule="nonzero"/></clipPath><clipPath id="a14eb1f9e5"><rect x="0" width="397" y="0" height="444"/></clipPath><clipPath id="f8537a4878"><path d="M 557 580 L 925 580 L 925 936 L 557 936 Z M 557 580 " clip-rule="nonzero"/></clipPath><clipPath id="f5c17c6779"><path d="M 557.46875 789.558594 L 685.332031 580.410156 L 924.867188 726.847656 L 797.003906 936 Z M 557.46875 789.558594 " clip-rule="nonzero"/></clipPath><clipPath id="5b032d24b1"><path d="M 0.28125 0.320312 L 367.960938 0.320312 L 367.960938 356 L 0.28125 356 Z M 0.28125 0.320312 " clip-rule="nonzero"/></clipPath><clipPath id="6b478ac26b"><path d="M 0.46875 209.558594 L 128.332031 0.410156 L 367.867188 146.847656 L 240.003906 356 Z M 0.46875 209.558594 " clip-rule="nonzero"/></clipPath><clipPath id="0a808d36ea"><rect x="0" width="368" y="0" height="356"/></clipPath><clipPath id="8c85dffdc1"><path d="M 354 442 L 838 442 L 838 1142 L 354 1142 Z M 354 442 " clip-rule="nonzero"/></clipPath><clipPath id="7ab1f3a54f"><path d="M 840.578125 448.703125 L 417.515625 1145.507812 L 272.492188 1057.453125 L 695.554688 360.652344 Z M 840.578125 448.703125 " clip-rule="nonzero"/></clipPath><clipPath id="aacda1b4ae"><path d="M 606.519531 507.296875 L 361.695312 910.527344 C 354.734375 921.996094 352.757812 935.804688 356.222656 948.765625 L 406.070312 1135.132812 C 407 1138.601562 409.90625 1141.183594 413.460938 1141.691406 C 417.015625 1142.199219 420.53125 1140.539062 422.394531 1137.46875 L 835.871094 456.457031 C 837.734375 453.390625 837.589844 449.503906 835.496094 446.585938 C 833.40625 443.664062 829.773438 442.273438 826.269531 443.050781 L 637.921875 484.800781 C 624.824219 487.703125 613.484375 495.828125 606.519531 507.296875 Z M 606.519531 507.296875 " clip-rule="nonzero"/></clipPath><clipPath id="3351ce4499"><path d="M 0 0.078125 L 483.839844 0.078125 L 483.839844 700 L 0 700 Z M 0 0.078125 " clip-rule="nonzero"/></clipPath><clipPath id="c8ad5f9a17"><path d="M 486.578125 6.703125 L 63.515625 703.507812 L -81.507812 615.453125 L 341.554688 -81.347656 Z M 486.578125 6.703125 " clip-rule="nonzero"/></clipPath><clipPath id="622ab807d4"><path d="M 252.519531 65.296875 L 7.695312 468.527344 C 0.734375 479.996094 -1.242188 493.804688 2.222656 506.765625 L 52.070312 693.132812 C 53 696.601562 55.90625 699.183594 59.460938 699.691406 C 63.015625 700.199219 66.53125 698.539062 68.394531 695.46875 L 481.871094 14.457031 C 483.734375 11.390625 483.589844 7.503906 481.496094 4.585938 C 479.40625 1.664062 475.773438 0.273438 472.269531 1.050781 L 283.921875 42.800781 C 270.824219 45.703125 259.484375 53.828125 252.519531 65.296875 Z M 252.519531 65.296875 " clip-rule="nonzero"/></clipPath><clipPath id="3ab5d2c043"><rect x="0" width="484" y="0" height="700"/></clipPath><clipPath id="a9201e7bbb"><path d="M 308.128906 790.816406 L 647.0625 790.816406 L 647.0625 1155.425781 L 308.128906 1155.425781 Z M 308.128906 790.816406 " clip-rule="nonzero"/></clipPath><clipPath id="e17c255f56"><path d="M 0.128906 0.816406 L 339.0625 0.816406 L 339.0625 365 L 0.128906 365 Z M 0.128906 0.816406 " clip-rule="nonzero"/></clipPath><clipPath id="73933594c4"><rect x="0" width="340" y="0" height="366"/></clipPath><clipPath id="657b9eee27"><path d="M 585.878906 382.144531 L 846.78125 382.144531 L 846.78125 523.585938 L 585.878906 523.585938 Z M 585.878906 382.144531 " clip-rule="nonzero"/></clipPath><clipPath id="b22048d931"><path d="M 0.878906 0.144531 L 261.78125 0.144531 L 261.78125 141.585938 L 0.878906 141.585938 Z M 0.878906 0.144531 " clip-rule="nonzero"/></clipPath><clipPath id="ed20a23c66"><rect x="0" width="262" y="0" height="142"/></clipPath><clipPath id="6b0d0d3a1a"><path d="M 617 379 L 1101 379 L 1101 1078 L 617 1078 Z M 617 379 " clip-rule="nonzero"/></clipPath><clipPath id="48bb471dca"><path d="M 1103.664062 385.074219 L 680.597656 1081.875 L 535.574219 993.824219 L 958.636719 297.023438 Z M 1103.664062 385.074219 " clip-rule="nonzero"/></clipPath><clipPath id="b7ce4e83e9"><path d="M 869.605469 443.664062 L 624.882812 846.730469 C 617.921875 858.195312 615.945312 872.007812 619.410156 884.964844 L 669.257812 1071.332031 C 670.183594 1074.800781 673.09375 1077.382812 676.648438 1077.890625 C 680.203125 1078.402344 683.71875 1076.738281 685.582031 1073.671875 L 1098.957031 392.828125 C 1100.820312 389.757812 1100.671875 385.875 1098.582031 382.953125 C 1096.488281 380.035156 1092.859375 378.644531 1089.351562 379.421875 L 901.003906 421.167969 C 887.910156 424.074219 876.566406 432.199219 869.605469 443.664062 Z M 869.605469 443.664062 " clip-rule="nonzero"/></clipPath><clipPath id="62471edb55"><path d="M 0 0 L 483.878906 0 L 483.878906 699 L 0 699 Z M 0 0 " clip-rule="nonzero"/></clipPath><clipPath id="4fcd593dc6"><path d="M 486.664062 6.074219 L 63.597656 702.875 L -81.425781 614.824219 L 341.636719 -81.976562 Z M 486.664062 6.074219 " clip-rule="nonzero"/></clipPath><clipPath id="79a167ab22"><path d="M 252.605469 64.664062 L 7.882812 467.730469 C 0.921875 479.195312 -1.054688 493.007812 2.410156 505.964844 L 52.257812 692.332031 C 53.183594 695.800781 56.09375 698.382812 59.648438 698.890625 C 63.203125 699.402344 66.71875 697.738281 68.582031 694.671875 L 481.957031 13.828125 C 483.820312 10.757812 483.671875 6.875 481.582031 3.953125 C 479.488281 1.035156 475.859375 -0.355469 472.351562 0.421875 L 284.003906 42.167969 C 270.910156 45.074219 259.566406 53.199219 252.605469 64.664062 Z M 252.605469 64.664062 " clip-rule="nonzero"/></clipPath><clipPath id="815e352677"><rect x="0" width="484" y="0" height="699"/></clipPath><clipPath id="019c533ce3"><path d="M 530.664062 1124.386719 L 1233.519531 1124.386719 L 1233.519531 1350 L 530.664062 1350 Z M 530.664062 1124.386719 " clip-rule="nonzero"/></clipPath><clipPath id="8e9dda3535"><path d="M 0.664062 0.386719 L 703.519531 0.386719 L 703.519531 226 L 0.664062 226 Z M 0.664062 0.386719 " clip-rule="nonzero"/></clipPath><clipPath id="3d1d437a3e"><rect x="0" width="704" y="0" height="226"/></clipPath><clipPath id="a6262943f9"><path d="M 402 177 L 1115 177 L 1115 431 L 402 431 Z M 402 177 " clip-rule="nonzero"/></clipPath><clipPath id="c34d9745a6"><path d="M 412.023438 177.316406 L 1114.261719 206.84375 L 1104.847656 430.703125 L 402.609375 401.171875 Z M 412.023438 177.316406 " clip-rule="nonzero"/></clipPath><clipPath id="67e874fa59"><path d="M 0.480469 0.121094 L 712.320312 0.121094 L 712.320312 253.800781 L 0.480469 253.800781 Z M 0.480469 0.121094 " clip-rule="nonzero"/></clipPath><clipPath id="c0592db5d9"><path d="M 10.023438 0.316406 L 712.261719 29.84375 L 702.847656 253.703125 L 0.609375 224.171875 Z M 10.023438 0.316406 " clip-rule="nonzero"/></clipPath><clipPath id="85f9f99e08"><rect x="0" width="713" y="0" height="254"/></clipPath><clipPath id="f8bc3283f5"><path d="M 643 707 L 738 707 L 738 786 L 643 786 Z M 643 707 " clip-rule="nonzero"/></clipPath><clipPath id="5bb53a4b5f"><path d="M 758.433594 750.394531 L 717.511719 820.679688 L 643.109375 777.363281 L 684.03125 707.078125 Z M 758.433594 750.394531 " clip-rule="nonzero"/></clipPath><clipPath id="2c4501284f"><path d="M 737.972656 785.539062 L 643.359375 777.507812 L 684.28125 707.222656 Z M 737.972656 785.539062 " clip-rule="nonzero"/></clipPath><clipPath id="2255fffcf9"><path d="M 0.199219 0.0390625 L 95 0.0390625 L 95 78.761719 L 0.199219 78.761719 Z M 0.199219 0.0390625 " clip-rule="nonzero"/></clipPath><clipPath id="dc6f32c034"><path d="M 115.433594 43.394531 L 74.511719 113.679688 L 0.109375 70.363281 L 41.03125 0.078125 Z M 115.433594 43.394531 " clip-rule="nonzero"/></clipPath><clipPath id="912a66d3cb"><path d="M 94.972656 78.539062 L 0.359375 70.507812 L 41.28125 0.222656 Z M 94.972656 78.539062 " clip-rule="nonzero"/></clipPath><clipPath id="66b5f8dcb3"><rect x="0" width="95" y="0" height="79"/></clipPath><clipPath id="da08f1b1c8"><path d="M 626 696 L 721 696 L 721 775 L 626 775 Z M 626 696 " clip-rule="nonzero"/></clipPath><clipPath id="50ab55b294"><path d="M 741.164062 739.386719 L 700.242188 809.671875 L 625.839844 766.351562 L 666.757812 696.066406 Z M 741.164062 739.386719 " clip-rule="nonzero"/></clipPath><clipPath id="cdb1a921a8"><path d="M 720.703125 774.527344 L 626.085938 766.5 L 667.007812 696.214844 Z M 720.703125 774.527344 " clip-rule="nonzero"/></clipPath><clipPath id="da273bab7b"><path d="M 0 0 L 94.71875 0 L 94.71875 78.71875 L 0 78.71875 Z M 0 0 " clip-rule="nonzero"/></clipPath><clipPath id="7e4c443268"><path d="M 115.164062 43.386719 L 74.242188 113.671875 L -0.160156 70.351562 L 40.757812 0.0664062 Z M 115.164062 43.386719 " clip-rule="nonzero"/></clipPath><clipPath id="acc928b599"><path d="M 94.703125 78.527344 L 0.0859375 70.5 L 41.007812 0.214844 Z M 94.703125 78.527344 " clip-rule="nonzero"/></clipPath><clipPath id="bf46544e20"><rect x="0" width="95" y="0" height="79"/></clipPath></defs><g clip-path="url(#c4d5075426)"><g clip-path="url(#0f844c76d6)"><g clip-path="url(#3c74a9ac5d)"><g transform="matrix(1, 0, 0, 1, 806, 697)"><g clip-path="url(#a14eb1f9e5)"><g clip-path="url(#6d6ffbb238)"><g clip-path="url(#18c5f3cce9)"><g clip-path="url(#3943e2ce75)"><path fill="#ad8330" d="M 41.609375 -11.914062 L 407.734375 443.769531 L 261.550781 561.222656 L -104.574219 105.539062 Z M 41.609375 -11.914062 " fill-opacity="1" fill-rule="nonzero"/></g></g></g></g></g></g></g></g><g clip-path="url(#f8537a4878)"><g clip-path="url(#f5c17c6779)"><g transform="matrix(1, 0, 0, 1, 557, 580)"><g clip-path="url(#0a808d36ea)"><g clip-path="url(#5b032d24b1)"><g clip-path="url(#6b478ac26b)"><path fill="#101010" d="M 0.46875 209.558594 L 128.332031 0.410156 L 367.710938 146.75 L 239.847656 355.902344 Z M 0.46875 209.558594 " fill-opacity="1" fill-rule="nonzero"/></g></g></g></g></g></g><g clip-path="url(#8c85dffdc1)"><g clip-path="url(#7ab1f3a54f)"><g clip-path="url(#aacda1b4ae)"><g transform="matrix(1, 0, 0, 1, 354, 442)"><g clip-path="url(#3ab5d2c043)"><g clip-path="url(#3351ce4499)"><g clip-path="url(#c8ad5f9a17)"><g clip-path="url(#622ab807d4)"><path fill="#f8d210" d="M 492.769531 -3.492188 L 57.667969 713.136719 L -87.355469 625.085938 L 347.746094 -91.542969 Z M 492.769531 -3.492188 " fill-opacity="1" fill-rule="nonzero"/></g></g></g></g></g></g></g></g><g clip-path="url(#a9201e7bbb)"><g transform="matrix(1, 0, 0, 1, 308, 790)"><g clip-path="url(#73933594c4)"><g clip-path="url(#e17c255f56)"><path fill="#101010" d="M 0.128906 0.816406 L 339.0625 0.816406 L 339.0625 364.90625 L 0.128906 364.90625 Z M 0.128906 0.816406 " fill-opacity="1" fill-rule="nonzero"/></g></g></g></g><g clip-path="url(#657b9eee27)"><g transform="matrix(1, 0, 0, 1, 585, 382)"><g clip-path="url(#ed20a23c66)"><g clip-path="url(#b22048d931)"><path fill="#101010" d="M 0.878906 0.144531 L 261.652344 0.144531 L 261.652344 141.585938 L 0.878906 141.585938 Z M 0.878906 0.144531 " fill-opacity="1" fill-rule="nonzero"/></g></g></g></g><g clip-path="url(#6b0d0d3a1a)"><g clip-path="url(#48bb471dca)"><g clip-path="url(#b7ce4e83e9)"><g transform="matrix(1, 0, 0, 1, 617, 379)"><g clip-path="url(#815e352677)"><g clip-path="url(#62471edb55)"><g clip-path="url(#4fcd593dc6)"><g clip-path="url(#79a167ab22)"><path fill="#e0701d" d="M 492.855469 -4.121094 L 57.75 712.507812 L -87.273438 624.453125 L 347.828125 -92.175781 Z M 492.855469 -4.121094 " fill-opacity="1" fill-rule="nonzero"/></g></g></g></g></g></g></g></g><g clip-path="url(#019c533ce3)"><g transform="matrix(1, 0, 0, 1, 530, 1124)"><g clip-path="url(#3d1d437a3e)"><g clip-path="url(#8e9dda3535)"><path fill="#101010" d="M 0.664062 0.386719 L 703.945312 0.386719 L 703.945312 226 L 0.664062 226 Z M 0.664062 0.386719 " fill-opacity="1" fill-rule="nonzero"/></g></g></g></g><g clip-path="url(#a6262943f9)"><g clip-path="url(#c34d9745a6)"><g transform="matrix(1, 0, 0, 1, 402, 177)"><g clip-path="url(#85f9f99e08)"><g clip-path="url(#67e874fa59)"><g clip-path="url(#c0592db5d9)"><path fill="#101010" d="M 10.023438 0.316406 L 712.199219 29.84375 L 702.785156 253.699219 L 0.609375 224.171875 Z M 10.023438 0.316406 " fill-opacity="1" fill-rule="nonzero"/></g></g></g></g></g></g><g clip-path="url(#f8bc3283f5)"><g clip-path="url(#5bb53a4b5f)"><g clip-path="url(#2c4501284f)"><g transform="matrix(1, 0, 0, 1, 643, 707)"><g clip-path="url(#66b5f8dcb3)"><g clip-path="url(#2255fffcf9)"><g clip-path="url(#dc6f32c034)"><g clip-path="url(#912a66d3cb)"><path fill="#101010" d="M 115.433594 43.394531 L 74.511719 113.679688 L 0.382812 70.523438 L 41.304688 0.234375 Z M 115.433594 43.394531 " fill-opacity="1" fill-rule="nonzero"/></g></g></g></g></g></g></g></g><g clip-path="url(#da08f1b1c8)"><g clip-path="url(#50ab55b294)"><g clip-path="url(#cdb1a921a8)"><g transform="matrix(1, 0, 0, 1, 626, 696)"><g clip-path="url(#bf46544e20)"><g clip-path="url(#da273bab7b)"><g clip-path="url(#7e4c443268)"><g clip-path="url(#acc928b599)"><path fill="#3d3100" d="M 115.164062 43.386719 L 74.242188 113.671875 L 0.113281 70.511719 L 41.035156 0.226562 Z M 115.164062 43.386719 " fill-opacity="1" fill-rule="nonzero"/></g></g></g></g></g></g></g></g></svg>